<svg version="1.1" id="logo" xmlns="http://www.w3.org/2000/svg" viewBox="0 0 474.7 497.3">
<g>
	<path fill="#FFFFFF" d="M238,462.7c-58.4,0-113.3-22.7-154.6-64c-41.3-41.3-64-96.2-64-154.6c0-58.4,22.7-113.3,64-154.6
		c41.3-41.3,96.2-64,154.6-64s113.3,22.7,154.6,64c41.3,41.3,64,96.2,64,154.6c0,58.4-22.7,113.3-64,154.6
		C351.3,440,296.4,462.7,238,462.7z"/>
	<path fill="#083D22" d="M238,28.4c29.1,0,57.4,5.7,83.9,16.9c25.7,10.9,48.7,26.4,68.6,46.2c19.8,19.8,35.4,42.9,46.2,68.6
		c11.2,26.6,16.9,54.8,16.9,83.9c0,29.1-5.7,57.4-16.9,83.9c-10.9,25.7-26.4,48.7-46.2,68.6c-19.8,19.8-42.9,35.4-68.6,46.2
		c-26.6,11.2-54.8,16.9-83.9,16.9c-29.1,0-57.4-5.7-83.9-16.9c-25.7-10.9-48.7-26.4-68.6-46.2c-19.8-19.8-35.4-42.9-46.2-68.6
		c-11.2-26.6-16.9-54.8-16.9-83.9c0-29.1,5.7-57.4,16.9-83.9c10.9-25.7,26.4-48.7,46.2-68.6c19.8-19.8,42.9-35.4,68.6-46.2
		C180.6,34.1,208.9,28.4,238,28.4 M238,22.4c-122.4,0-221.7,99.2-221.7,221.7c0,122.4,99.2,221.7,221.7,221.7
		s221.7-99.2,221.7-221.7C459.7,121.7,360.4,22.4,238,22.4L238,22.4z"/>
</g>
<path fill="#083D22" d="M408.9,368.5l-18-31.9c-32.3,50.3-88.7,83.6-152.9,83.6c-64.2,0-120.7-33.3-152.9-83.6l-18,31.9L30,371.9
	c43.9,68.4,120.7,113.7,208,113.7s164.1-45.3,208-113.7L408.9,368.5z"/>
<g>
	<circle fill="#053D22" cx="238" cy="244.1" r="159.7"/>
</g>
<path fill="#8DC63F" d="M396.6,225.6l-22.4-29.3l-10.3,9.8l-33.2-37.2l-41.9,39.3l0.1-12.9c0,0,7.7-5.6,6.1-12.6l-4.7-1.2l0.1-3.1
	l-1.8,0l0.4-1.1l2.7,0l0-0.8l-3.5-0.3l0-3.3l2.6,0l0.3-3l-3,0l-0.4-31.7l1,0c0,0,1.5-1.9,1.4-4.4l-3.1-0.6l-0.3-30.2l-0.5,0l-0.1,0
	l-0.5,30.2l-3.1,0.6c0,2.6,1.4,4.5,1.4,4.5l1,0l-0.6,31.7l-3-0.1l0.3,3l2.6,0l-0.1,3.3l-3.5,0.3l0,0.8l2.7,0l0.3,1.1l-1.8,0l0.1,3.1
	l-4.7,1.2c-1.6,7,6.1,12.7,6.1,12.7l0,11.4l-59-65.8l-77.7,90.1l-36.5-38.8l-29.8,25.1c-1.5,8.7-2.3,17.7-2.3,26.8
	c0,3.1,0.1,6.2,0.3,9.3l17-32.2l-4.9-6.2l9.3-2.2l10.2-19.3l36.6,38.9l18.6,20l19.2-32.3l-2.6,4.4l10.5-1l9.1,2l6.5,5.6l-5.9-11.1
	l-13.7-6.6l5.8-9.8l-9.8-2.9l11.1-8.2l28.7-50.2l62,69.2l22.9,22.5l3.6-22.5l-5.6-4.6l5.6-1.6l-1.6-7.8l10.4-9.5l8.6-17.6l32.6,36.5
	L340.2,231l-32.7,35.2h28.7l7.8-10.4l-4.9-10.4l6.5-6.2l7.8-8.2l3.6-7.3l7.2-4.9l-2.3-5.1l7.2-8.4l3-5.5l1.8-1.9l22.7,29.7
	C396.8,226.9,396.7,226.3,396.6,225.6z"/>
<g>
	<path fill="#1C75BC" d="M80.6,217.3l29.8-25.1l36.5,38.8l77.7-90.1l59,65.8l0-11.4c0,0-7.6-5.7-6.1-12.7l4.7-1.2l-0.1-3.1l1.8,0
		l-0.3-1.1l-2.7,0l0-0.8l3.5-0.3l0.1-3.3l-2.6,0l-0.3-3l3,0.1L285,138l-1,0c0,0-1.4-1.9-1.4-4.5l3.1-0.6l0.5-30.2l0.1,0l0.5,0
		l0.3,30.2l3.1,0.6c0,2.6-1.4,4.4-1.4,4.4l-1,0l0.4,31.7l3,0l-0.3,3l-2.6,0l0,3.3l3.5,0.3l0,0.8l-2.7,0l-0.4,1.1l1.8,0l-0.1,3.1
		l4.7,1.2c1.6,7-6.1,12.6-6.1,12.6l-0.1,12.9l41.9-39.3l33.2,37.2l10.3-9.8l22.4,29.3C387.5,146.1,320,84.4,238,84.4
		c-83.3,0-151.8,63.8-159,145.3C79.4,225.5,79.9,221.3,80.6,217.3z"/>
</g>
<g>
	<polygon fill="#8DC63F" points="91.5,269.9 91.5,266.9 88,266.9 89.7,262.4 88.4,262.4 90.7,258.3 89.1,258.7 91.5,254.5 
		89.7,254.5 92.3,250.8 93.9,254.3 92.8,254.4 95.4,258.7 93,258.3 95.4,262.6 93.6,262.4 96.2,267.3 92.7,266.6 92.7,269.9 	"/>
	<polygon fill="#8DC63F" points="162.4,291.5 162.4,288.6 159,288.6 160.7,284 159.4,284 161.7,279.9 160.1,280.3 162.4,276.1 
		160.7,276.1 163.3,272.5 164.9,275.9 163.8,276 166.4,280.3 163.9,279.9 166.4,284.2 164.6,284 167.2,288.9 163.7,288.2 
		163.7,291.5 	"/>
	<polygon fill="#8DC63F" points="140.5,285.1 140.5,281.2 136.1,281.2 138.3,275.1 136.7,275.1 139.5,269.7 137.5,270.2 
		140.5,264.7 138.3,264.7 141.5,259.9 143.5,264.4 142.2,264.6 145.4,270.2 142.4,269.7 145.4,275.4 143.2,275.1 146.4,281.6 
		142,280.7 142,285.1 	"/>
	<polygon fill="#8DC63F" points="184.7,296.7 184.7,291 178.3,291 181.5,282.2 179.1,282.2 183.3,274.2 180.3,275 184.7,266.9 
		181.5,266.9 186.2,259.9 189.1,266.6 187.1,266.7 191.9,275 187.4,274.2 191.9,282.5 188.7,282.2 193.3,291.7 187,290.4 187,296.7 
			"/>
	<polygon fill="#8DC63F" points="247.4,320.9 247.4,315.2 241,315.2 244.2,306.4 241.8,306.4 246,298.4 243,299.2 247.4,291.1 
		244.2,291.1 248.9,284.1 251.8,290.7 249.8,290.9 254.6,299.2 250.1,298.4 254.6,306.7 251.4,306.4 256,315.8 249.7,314.5 
		249.7,320.9 	"/>
	<polygon fill="#8DC63F" points="359.7,290.8 359.7,286.1 354.3,286.1 357,278.9 354.9,278.9 358.5,272.3 356,273 359.7,266.3 
		357,266.3 361.1,260.6 363.6,266 361.9,266.2 366,273 362.1,272.3 366,279.1 363.2,278.9 367.2,286.6 361.7,285.6 361.7,290.8 	"/>
	<polygon fill="#8DC63F" points="215.1,302.8 215.1,298.1 209.6,298.1 212.4,290.9 210.3,290.9 213.9,284.4 211.4,285 215.1,278.3 
		212.4,278.3 216.4,272.6 219,278.1 217.2,278.2 221.4,285 217.5,284.4 221.4,291.2 218.6,290.9 222.6,298.7 217.1,297.6 
		217.1,302.8 	"/>
	<polygon fill="#8DC63F" points="346.1,302.8 346.1,298.1 340.6,298.1 343.4,290.9 341.3,290.9 344.9,284.4 342.4,285 346.1,278.3 
		343.4,278.3 347.4,272.6 350,278.1 348.2,278.2 352.4,285 348.5,284.4 352.4,291.2 349.6,290.9 353.6,298.7 348.1,297.6 
		348.1,302.8 	"/>
	<polygon fill="#8DC63F" points="101.6,273.5 101.6,270.4 96.8,270.4 100.9,264.8 98,264.8 100.4,260.7 98.3,261.3 100.9,257.2 
		99.2,257.2 102.6,252.9 104.7,256.7 103.4,257.1 106.2,261.2 103.4,261.1 106.2,265 104.3,265.4 108,270.5 103.1,270.2 
		103.2,273.5 	"/>
	<polygon fill="#8DC63F" points="278,304.4 278,301.4 273.2,301.4 277.3,295.8 274.4,295.8 276.8,291.7 274.7,292.3 277.3,288.2 
		275.6,288.2 279,283.9 281.1,287.7 279.8,288 282.7,292.2 279.8,292.1 282.7,296 280.7,296.4 284.4,301.5 279.5,301.1 279.6,304.4 
			"/>
	<polygon fill="#8DC63F" points="172.6,294.2 172.6,291.8 168.9,291.8 172,287.5 169.9,287.5 171.6,284.5 170.1,284.9 172,281.8 
		170.8,281.8 173.3,278.5 174.9,281.4 174,281.7 176.1,284.8 174,284.7 176.1,287.7 174.6,288 177.4,291.9 173.7,291.6 173.8,294.2 
			"/>
	<polygon fill="#8DC63F" points="387.4,285.1 387.4,282.8 383.8,282.8 386.9,278.5 384.7,278.5 386.5,275.4 384.9,275.9 
		386.9,272.7 385.6,272.7 388.2,269.4 389.8,272.3 388.8,272.6 391,275.8 388.8,275.7 391,278.7 389.5,278.9 392.3,282.9 
		388.5,282.6 388.6,285.1 	"/>
	<polygon fill="#8DC63F" points="126,280.9 126,276.8 120.3,276.8 125.1,269.2 121.7,269.2 124.5,263.7 122,264.6 125.1,258.9 
		123.1,258.9 127.2,253.1 129.7,258.3 128.2,258.8 131.6,264.4 128.2,264.2 131.6,269.5 129.2,270 133.6,277 127.8,276.5 
		127.9,280.9 	"/>
	<polygon fill="#8DC63F" points="327.2,303.3 327.2,299.1 321.4,299.1 326.3,291.5 322.9,291.5 325.7,286.1 323.2,286.9 
		326.3,281.3 324.3,281.3 328.3,275.5 330.8,280.6 329.3,281.1 332.7,286.7 329.3,286.6 332.7,291.9 330.4,292.4 334.8,299.3 
		328.9,298.8 329.1,303.3 	"/>
	<polygon fill="#8DC63F" points="304,300.2 304,296.1 298.3,296.1 303.1,288.5 299.8,288.5 302.5,283 300,283.8 303.1,278.2 
		301.1,278.2 305.2,272.4 307.7,277.6 306.2,278 309.6,283.7 306.2,283.5 309.6,288.8 307.2,289.3 311.6,296.3 305.8,295.8 
		305.9,300.2 	"/>
	<polygon fill="#8DC63F" points="114.4,278.5 114.4,273.3 110.5,274 113.7,264.5 110.5,264.9 113.5,258.8 111.5,259.8 114.4,252 
		112.4,253.5 115.4,244.9 117.7,252.4 115.7,252 118.6,258.8 116.4,257.9 119.3,265.1 116.1,264.3 120.3,273.5 115.4,273.5 
		115.4,278.1 	"/>
	<polygon fill="#8DC63F" points="291.4,313.5 291.4,308.3 287.5,308.9 290.7,299.5 287.5,299.9 290.6,293.8 288.5,294.7 291.4,287 
		289.5,288.5 292.4,279.9 294.7,287.4 292.8,287 295.6,293.8 293.4,292.9 296.3,300.1 293.1,299.3 297.3,308.5 292.4,308.5 
		292.4,313.1 	"/>
	<polygon fill="#8DC63F" points="200.1,300.6 200.1,293.4 194.6,294.3 199,281.2 194.6,281.7 198.9,273.2 196,274.5 200.1,263.8 
		197.3,265.9 201.4,253.9 204.6,264.3 201.9,263.8 205.8,273.2 202.8,272 206.9,282 202.4,280.8 208.2,293.6 201.4,293.6 
		201.4,300.1 	"/>
	<polygon fill="#8DC63F" points="261.5,320 261.5,312.9 256,313.7 260.4,300.6 256,301.1 260.3,292.6 257.4,294 261.5,283.3 
		258.7,285.3 262.8,273.4 266.1,283.8 263.3,283.3 267.3,292.6 264.2,291.4 268.3,301.5 263.8,300.3 269.6,313.1 262.8,313.1 
		262.8,319.5 	"/>
	<polygon fill="#8DC63F" points="375.6,295.8 375.6,288.6 370.2,289.5 374.6,276.4 370.2,276.9 374.4,268.4 371.5,269.7 375.6,259 
		372.9,261.1 377,249.1 380.2,259.5 377.5,259 381.4,268.4 378.3,267.2 382.4,277.2 377.9,276 383.8,288.8 377,288.8 377,295.3 	"/>
	<polygon fill="#8DC63F" points="153.1,289.4 153.1,285.1 149.2,285.6 152.4,277.9 149.2,278.2 152.2,273.1 150.2,273.9 
		153.1,267.6 151.1,268.8 154.1,261.7 156.4,267.9 154.4,267.6 157.3,273.1 155.1,272.4 158,278.4 154.8,277.7 159,285.2 
		154.1,285.2 154.1,289.1 	"/>
	<polygon fill="#8DC63F" points="315.6,304.6 315.6,300.4 311.6,300.9 314.8,293.1 311.6,293.4 314.7,288.4 312.6,289.2 
		315.6,282.8 313.6,284 316.5,276.9 318.9,283.1 316.9,282.8 319.7,288.4 317.5,287.6 320.4,293.6 317.2,292.9 321.4,300.5 
		316.5,300.5 316.5,304.3 	"/>
	<polygon fill="#8DC63F" points="231.7,304.6 231.7,300.4 227.8,300.9 231,293.1 227.8,293.4 230.8,288.4 228.8,289.2 231.7,282.8 
		229.7,284 232.7,276.9 235,283.1 233,282.8 235.9,288.4 233.7,287.6 236.6,293.6 233.4,292.9 237.6,300.5 232.7,300.5 232.7,304.3 
			"/>
	<polygon fill="#8DC63F" points="336.7,297.7 336.7,293.5 332.8,294 336,286.2 332.8,286.5 335.9,281.5 333.8,282.3 336.7,275.9 
		334.8,277.1 337.7,270 340,276.2 338.1,275.9 340.9,281.5 338.7,280.7 341.6,286.7 338.4,286 342.6,293.6 337.7,293.6 337.7,297.4 
			"/>
</g>
<g>
	<path fill="#FFFFFF" d="M94,423.2l-3.7-3.4c-0.4-0.4-0.6-0.8-0.7-1.3c-0.1-0.5,0-0.9,0.2-1.4l3.4-7.6l-10.6-9.7l-7.2,4.1
		c-0.4,0.2-0.8,0.3-1.3,0.3c-0.5,0-1-0.2-1.4-0.5l-3.7-3.4l36.1-19.3l4.9,4.4L94,423.2z M95.3,404.8l5.5-12.3
		c0.2-0.6,0.5-1.2,0.9-1.9c0.4-0.7,0.8-1.5,1.2-2.3c-0.8,0.5-1.5,1-2.2,1.4c-0.7,0.4-1.3,0.8-1.9,1.1l-11.7,6.6L95.3,404.8z"/>
	<path fill="#FFFFFF" d="M139.3,430.2c-1.5,2.4-3.3,4.3-5.3,5.9c-2,1.5-4.1,2.6-6.3,3.2c-2.2,0.6-4.5,0.7-6.8,0.4
		c-2.3-0.4-4.6-1.3-6.8-2.7l-11.1-7.1l20.7-32.5l11.1,7.1c2.2,1.4,4,3.1,5.3,5.1c1.3,2,2.2,4.1,2.5,6.3c0.4,2.3,0.3,4.6-0.3,7.1
		C141.9,425.4,140.9,427.8,139.3,430.2z M133.8,426.7c1.1-1.8,1.9-3.5,2.4-5.2s0.6-3.3,0.5-4.8c-0.2-1.5-0.7-2.9-1.5-4.1
		c-0.8-1.3-1.9-2.3-3.4-3.2l-5.7-3.6l-14.6,22.9l5.7,3.6c1.4,0.9,2.9,1.5,4.4,1.7c1.5,0.2,2.9,0.1,4.4-0.4c1.4-0.5,2.8-1.3,4.1-2.4
		C131.4,429.9,132.6,428.4,133.8,426.7z"/>
	<path fill="#FFFFFF" d="M182.2,427.6l-27.7,30.3l-5.4-2.2l1.8-41l4.8,2c0.5,0.2,0.9,0.5,1.1,0.9c0.2,0.4,0.3,0.9,0.3,1.4l-1.4,24.9
		c0,0.8-0.1,1.7-0.2,2.6c-0.1,0.9-0.3,1.9-0.4,2.9c0.6-0.8,1.1-1.7,1.7-2.4c0.6-0.8,1.1-1.4,1.7-2l16.5-18.6
		c0.3-0.3,0.7-0.6,1.1-0.7c0.5-0.2,1-0.1,1.5,0.1L182.2,427.6z"/>
	<path fill="#FFFFFF" d="M191.9,435.5l-2.4,10.4l11.8,2.7l-1.2,5.4l-11.8-2.7l-2.4,10.6l15,3.4l-1.3,5.6l-21.3-4.9l8.6-37.6
		l21.3,4.9L207,439L191.9,435.5z"/>
	<path fill="#FFFFFF" d="M244,435.9l-1.8,38.5l-3.3-0.2c-0.5,0-0.9-0.1-1.3-0.3c-0.3-0.2-0.7-0.5-1-1l-16.9-26.5c0,1.2,0,2.3,0,3.3
		l-1.1,23.7L213,473l1.8-38.5l3.4,0.2c0.3,0,0.5,0,0.7,0.1c0.2,0,0.4,0.1,0.5,0.2c0.1,0.1,0.3,0.2,0.4,0.4c0.1,0.2,0.3,0.4,0.5,0.6
		l17,26.6c0-0.6,0-1.2,0-1.8c0-0.6,0-1.2,0-1.7l1.1-23.4L244,435.9z"/>
	<path fill="#FFFFFF" d="M277.5,437.7l-10.4,1.4l4.4,32.4l-6.4,0.9l-4.4-32.4l-10.4,1.4l-0.8-5.8l27.1-3.7L277.5,437.7z"/>
	<path fill="#FFFFFF" d="M305.4,457.5c1.2-0.4,2.2-0.9,3-1.7c0.8-0.7,1.4-1.6,1.8-2.6c0.4-1,0.6-2.1,0.5-3.4c0-1.2-0.3-2.6-0.7-4
		l-7.1-22l6.1-2l7.1,22c0.7,2.2,1,4.3,1,6.4c0,2.1-0.4,3.9-1.2,5.7c-0.7,1.7-1.8,3.2-3.3,4.5c-1.4,1.3-3.2,2.3-5.3,3
		c-2.1,0.7-4.2,0.9-6.1,0.7c-1.9-0.2-3.7-0.8-5.3-1.8c-1.6-1-3-2.3-4.3-3.9c-1.2-1.6-2.2-3.6-2.9-5.7l-7.1-22l6.1-2l7.1,21.9
		c0.5,1.4,1,2.6,1.7,3.6c0.7,1,1.5,1.8,2.4,2.4c0.9,0.6,1.9,1,3,1.1C303.1,458,304.3,457.9,305.4,457.5z"/>
	<path fill="#FFFFFF" d="M358.6,439.7l-5.1,2.7c-1,0.5-1.9,0.5-2.8-0.1l-12.3-7.5c-0.5-0.3-0.9-0.4-1.3-0.4c-0.4,0-0.9,0.1-1.4,0.4
		l-2.4,1.3l7.1,13.3l-5.7,3l-18.2-34l9.3-5c2.1-1.1,4-1.8,5.7-2.1c1.7-0.3,3.3-0.3,4.7,0.1c1.4,0.4,2.7,1,3.8,2c1.1,1,2,2.2,2.8,3.6
		c0.6,1.1,1,2.3,1.3,3.5c0.2,1.2,0.3,2.3,0.2,3.5c-0.1,1.1-0.4,2.2-0.9,3.3c-0.5,1.1-1.2,2.1-2.1,3c0.5,0,1,0.1,1.5,0.3
		c0.5,0.2,1,0.4,1.5,0.7L358.6,439.7z M334.4,429.7c1.1-0.6,1.9-1.2,2.6-1.9c0.6-0.7,1.1-1.5,1.3-2.3c0.2-0.8,0.3-1.6,0.2-2.5
		c-0.1-0.9-0.4-1.7-0.9-2.6c-0.9-1.7-2.1-2.8-3.7-3.2c-1.5-0.4-3.3,0-5.4,1.1l-3.6,1.9l6,11.3L334.4,429.7z"/>
	<path fill="#FFFFFF" d="M353.1,403.2l6.4,8.6l9.7-7.3l3.3,4.4l-9.7,7.3l6.5,8.7l12.3-9.2l3.4,4.6l-17.5,13.1l-23.1-30.9l17.5-13.1
		l3.4,4.6L353.1,403.2z"/>
	<path fill="#FFFFFF" d="M385.6,376.6c0.1,0.4,0.2,0.7,0.1,1c0,0.3-0.2,0.5-0.4,0.7c-0.2,0.2-0.6,0.4-1.1,0.5
		c-0.5,0.1-1,0.2-1.6,0.3c-0.6,0.1-1.3,0.4-2,0.7c-0.7,0.3-1.4,0.8-2.1,1.5c-0.6,0.6-1.1,1.3-1.4,1.9c-0.3,0.6-0.5,1.3-0.5,1.9
		c0,0.6,0.1,1.2,0.3,1.8c0.3,0.6,0.6,1.1,1.1,1.6c0.6,0.6,1.3,1,2.1,1.1c0.7,0.1,1.5,0.1,2.4-0.2c0.8-0.2,1.7-0.5,2.6-1
		c0.9-0.4,1.9-0.9,2.9-1.3c1-0.4,2-0.8,3-1.1c1-0.3,2.1-0.4,3.2-0.4c1.1,0,2.2,0.3,3.3,0.8c1.1,0.5,2.2,1.3,3.3,2.4
		c1.2,1.2,2.2,2.6,2.8,4.1c0.7,1.5,1,3,1.1,4.5c0.1,1.5-0.2,3-0.8,4.5c-0.6,1.5-1.6,2.9-3,4.3c-0.8,0.8-1.7,1.4-2.6,2
		c-0.9,0.6-1.9,1.1-2.9,1.4c-1,0.4-2,0.6-3.1,0.8c-1.1,0.2-2.1,0.2-3.1,0.1l-1-3.8c-0.1-0.3-0.1-0.6,0-0.9c0.1-0.3,0.2-0.5,0.4-0.8
		c0.3-0.3,0.7-0.5,1.3-0.5c0.6-0.1,1.3-0.2,2-0.3c0.8-0.1,1.6-0.4,2.5-0.7c0.9-0.3,1.7-0.9,2.6-1.8c1.3-1.3,2-2.6,2-4
		c0-1.4-0.6-2.7-1.8-4c-0.7-0.7-1.4-1.2-2.2-1.3c-0.8-0.1-1.6-0.1-2.4,0.1c-0.8,0.2-1.7,0.6-2.6,1c-0.9,0.5-1.8,0.9-2.8,1.3
		c-1,0.4-2,0.8-3,1.1c-1,0.3-2.1,0.4-3.2,0.4c-1.1,0-2.2-0.3-3.4-0.9c-1.2-0.5-2.4-1.4-3.6-2.7c-1-1-1.8-2.2-2.3-3.5
		c-0.6-1.3-0.9-2.7-0.9-4.1c0-1.4,0.2-2.8,0.8-4.3c0.6-1.4,1.5-2.8,2.8-4.1c1.5-1.4,3.1-2.5,4.8-3.2c1.7-0.7,3.5-1,5.2-1
		L385.6,376.6z"/>
</g>
<g>
	<path fill="#083D22" d="M105.6,133.4l-2.9,4.4c-0.3,0.5-0.7,0.8-1.2,0.9c-0.5,0.1-0.9,0.2-1.4,0.1l-7.7-1.9l-8.5,12.6l4.7,6.4
		c0.2,0.3,0.4,0.7,0.4,1.2c0,0.5-0.1,1-0.4,1.5l-3,4.4l-22.3-32.4l3.9-5.7L105.6,133.4z M87.4,135.6l-12.6-3.1
		c-0.6-0.1-1.2-0.3-2-0.5c-0.7-0.2-1.5-0.5-2.4-0.8c0.6,0.7,1.1,1.3,1.6,1.9c0.5,0.6,0.9,1.2,1.2,1.7l7.6,10.4L87.4,135.6z"/>
	<path fill="#083D22" d="M122.1,109.4l3.9,4l-15.2,15.1l-25.7-26l4.8-4.8l21.8,22L122.1,109.4z"/>
	<path fill="#083D22" d="M146.6,55.9l19,31.2l-5.1,3.1l-12.3-20.2c-0.5-0.8-1-1.7-1.5-2.7l1.4,23.5c0.1,1.1-0.4,2-1.3,2.5l-0.8,0.5
		c-0.9,0.6-1.9,0.6-2.8,0l-20.4-12c0.3,0.4,0.7,0.9,1,1.3c0.3,0.4,0.6,0.9,0.8,1.2l12.3,20.2l-5.1,3.1l-19-31.2l4.4-2.7
		c0.3-0.2,0.5-0.3,0.7-0.4c0.2-0.1,0.4-0.2,0.6-0.2c0.2,0,0.4,0,0.6,0c0.2,0.1,0.4,0.2,0.7,0.3l19.9,11.6c0.5,0.3,1,0.6,1.5,1
		c0.5,0.4,1,0.7,1.5,1.1c-0.1-0.7-0.2-1.3-0.3-1.9c-0.1-0.6-0.1-1.2-0.2-1.9l-1.3-22.9c0-0.3,0-0.5,0.1-0.7c0.1-0.2,0.1-0.4,0.2-0.5
		c0.1-0.1,0.3-0.3,0.4-0.4c0.2-0.1,0.4-0.3,0.7-0.4L146.6,55.9z"/>
	<path fill="#083D22" d="M206.1,74.4l-5,1.5c-0.6,0.2-1.1,0.2-1.5,0c-0.4-0.2-0.8-0.4-1.1-0.8l-4.7-6.4L179.2,73l-0.5,7.9
		c0,0.4-0.2,0.8-0.4,1.2c-0.3,0.4-0.7,0.7-1.2,0.9l-5.1,1.5l3.4-39.1l6.6-2L206.1,74.4z M190.7,64.6l-7.7-10.4
		c-0.4-0.5-0.8-1-1.2-1.6c-0.4-0.6-0.9-1.3-1.4-2.1c0,0.9,0,1.7,0,2.5c0,0.8,0,1.5-0.1,2.1l-0.8,12.9L190.7,64.6z"/>
	<path fill="#083D22" d="M308.1,47l-8.9,35.4l-5.8-1.5l5.8-22.9c0.2-0.9,0.5-1.9,0.9-2.9l-15.8,17.4c-0.7,0.8-1.6,1.1-2.7,0.9
		l-0.9-0.2c-1-0.3-1.7-0.9-2-2l-5.8-22.9c-0.1,0.6-0.2,1.1-0.3,1.6c-0.1,0.5-0.2,1-0.3,1.5l-5.8,22.9l-5.8-1.5l8.9-35.4l5,1.3
		c0.3,0.1,0.5,0.1,0.8,0.2c0.2,0.1,0.4,0.2,0.5,0.3c0.2,0.1,0.3,0.3,0.4,0.4c0.1,0.2,0.2,0.4,0.3,0.7l5.7,22.4
		c0.1,0.6,0.3,1.2,0.4,1.8c0.1,0.6,0.2,1.2,0.3,1.9c0.4-0.5,0.8-1.1,1.2-1.6c0.4-0.5,0.8-1,1.2-1.4l15.4-17c0.2-0.2,0.4-0.4,0.6-0.5
		c0.2-0.1,0.4-0.2,0.6-0.2c0.2,0,0.4,0,0.6,0c0.2,0,0.5,0.1,0.8,0.2L308.1,47z"/>
	<path fill="#083D22" d="M348.5,88.5c-1.3,2.3-3,4.3-4.9,5.8c-1.9,1.5-4,2.6-6.2,3.3c-2.2,0.6-4.6,0.8-7,0.5
		c-2.4-0.3-4.9-1.2-7.3-2.6c-2.4-1.4-4.3-3-5.9-5c-1.5-1.9-2.5-4-3.1-6.3c-0.6-2.3-0.7-4.6-0.3-7c0.4-2.4,1.2-4.8,2.5-7.1
		c1.3-2.3,3-4.3,4.9-5.8c1.9-1.5,4-2.6,6.2-3.3c2.2-0.6,4.6-0.8,7-0.5c2.4,0.3,4.9,1.2,7.3,2.5c1.6,0.9,3,2,4.2,3.2
		c1.2,1.2,2.2,2.5,3,3.8c0.8,1.4,1.4,2.8,1.8,4.3c0.4,1.5,0.6,3.1,0.5,4.6c0,1.6-0.3,3.2-0.7,4.8C350.1,85.4,349.4,86.9,348.5,88.5z
		 M342.5,85c1-1.7,1.7-3.4,2-5.1c0.3-1.6,0.3-3.2,0-4.7c-0.3-1.5-0.9-2.8-1.9-4c-0.9-1.2-2.2-2.3-3.7-3.2c-1.5-0.9-3.1-1.4-4.6-1.6
		c-1.5-0.2-3-0.1-4.4,0.4c-1.4,0.5-2.8,1.3-4,2.4c-1.3,1.1-2.4,2.5-3.4,4.3c-1,1.7-1.7,3.4-2,5.1c-0.3,1.6-0.3,3.2,0,4.7
		c0.3,1.5,0.9,2.8,1.9,4c0.9,1.2,2.2,2.3,3.7,3.2c1.5,0.9,3.1,1.4,4.6,1.6c1.5,0.2,3,0.1,4.4-0.4c1.4-0.5,2.7-1.2,4-2.4
		C340.4,88.2,341.5,86.8,342.5,85z"/>
	<path fill="#083D22" d="M394,105.3l-25.4,26.2l-2.5-2.4c-0.4-0.4-0.7-0.8-0.8-1.1c-0.1-0.4-0.2-0.8-0.1-1.4l3.3-30.8
		c-0.7,0.9-1.4,1.6-2,2.3l-15.6,16.1l-4.3-4.2l25.4-26.2l2.6,2.5c0.2,0.2,0.4,0.4,0.5,0.5c0.1,0.2,0.2,0.3,0.3,0.5
		c0.1,0.2,0.1,0.4,0.1,0.6c0,0.2,0,0.5,0,0.8l-3.3,30.9c0.4-0.5,0.7-0.9,1.1-1.3c0.4-0.4,0.7-0.8,1.1-1.2l15.5-16L394,105.3z"/>
	<path fill="#083D22" d="M411,140.2c-0.4,0-0.7,0-1-0.1c-0.3-0.1-0.5-0.3-0.7-0.6c-0.2-0.3-0.3-0.7-0.3-1.2c0-0.5,0-1.1-0.1-1.7
		c-0.1-0.7-0.2-1.4-0.4-2.2c-0.2-0.8-0.6-1.6-1.2-2.5c-0.5-0.8-1.1-1.4-1.7-1.9c-0.6-0.5-1.2-0.8-1.8-1c-0.6-0.2-1.2-0.2-1.8-0.1
		c-0.6,0.1-1.2,0.4-1.7,0.7c-0.7,0.5-1.2,1.1-1.4,1.8c-0.2,0.7-0.3,1.5-0.2,2.4c0.1,0.9,0.3,1.8,0.6,2.9c0.3,1,0.6,2.1,0.9,3.2
		c0.3,1.1,0.5,2.2,0.7,3.3c0.2,1.1,0.2,2.2,0,3.3c-0.2,1.1-0.6,2.1-1.2,3.1c-0.6,1-1.6,1.9-2.8,2.7c-1.4,0.9-2.8,1.5-4.3,1.9
		c-1.5,0.3-3,0.3-4.5,0c-1.5-0.3-2.9-0.9-4.3-1.9c-1.4-1-2.6-2.3-3.8-4c-0.6-1-1.2-2-1.6-3c-0.4-1.1-0.8-2.1-1-3.2
		c-0.2-1.1-0.3-2.2-0.4-3.3c0-1.1,0.1-2.1,0.3-3.1l3.8-0.2c0.3,0,0.6,0.1,0.9,0.2c0.3,0.1,0.5,0.3,0.7,0.6c0.2,0.4,0.3,0.8,0.3,1.4
		c0,0.6,0,1.3,0,2.1c0,0.8,0.1,1.7,0.4,2.6c0.2,0.9,0.7,1.9,1.4,3c1.1,1.6,2.3,2.6,3.6,3c1.4,0.4,2.7,0.1,4.2-0.9
		c0.8-0.5,1.3-1.2,1.6-1.9c0.2-0.7,0.3-1.5,0.2-2.4c-0.1-0.9-0.3-1.8-0.6-2.8c-0.3-1-0.6-2-0.9-3.1c-0.3-1.1-0.5-2.1-0.7-3.2
		c-0.2-1.1-0.2-2.2,0-3.3c0.2-1.1,0.6-2.1,1.3-3.2c0.7-1,1.7-2,3.1-2.9c1.1-0.7,2.3-1.2,3.7-1.5c1.3-0.3,2.7-0.2,4.1,0.1
		c1.4,0.3,2.7,0.9,4,1.8c1.3,0.9,2.5,2.2,3.6,3.8c1.2,1.8,2,3.6,2.5,5.5c0.5,1.9,0.5,3.7,0.2,5.4L411,140.2z"/>
</g>
<g>
	<g>
		<path fill="#8DC63F" d="M243.1,403.7c0.9,0,1.7-0.1,2.6-0.1c0.5,0,1-0.1,1.4-0.1c0.8,0,1.6-0.1,2.4-0.2c0.5,0,1-0.1,1.5-0.1
			c0.8-0.1,1.6-0.1,2.4-0.2c0.5,0,0.9-0.1,1.4-0.1c0.9-0.1,1.7-0.2,2.6-0.3c0.4,0,0.8-0.1,1.2-0.1c1.2-0.2,2.5-0.3,3.7-0.5
			c0.1,0,0.3,0,0.4-0.1c1.1-0.2,2.2-0.4,3.3-0.5c0.4-0.1,0.8-0.2,1.3-0.2c0.8-0.1,1.6-0.3,2.4-0.5c0.5-0.1,1-0.2,1.4-0.3
			c0.7-0.2,1.5-0.3,2.2-0.5c0.5-0.1,1-0.2,1.4-0.3c0.7-0.2,1.5-0.4,2.2-0.5c0.5-0.1,0.9-0.2,1.4-0.4c0.8-0.2,1.6-0.4,2.4-0.6
			c0.4-0.1,0.8-0.2,1.2-0.3c1.2-0.3,2.3-0.7,3.5-1c0.3-0.1,0.5-0.2,0.7-0.2c0.9-0.3,1.8-0.6,2.7-0.9c0.4-0.1,0.9-0.3,1.3-0.5
			c0.7-0.2,1.4-0.5,2.1-0.8c0.5-0.2,1-0.4,1.4-0.5c0.7-0.2,1.3-0.5,2-0.8c0.5-0.2,1-0.4,1.5-0.6c0.7-0.3,1.3-0.5,2-0.8
			c0.5-0.2,0.9-0.4,1.4-0.6c0.7-0.3,1.4-0.6,2.1-0.9c0.4-0.2,0.8-0.4,1.3-0.6c1.1-0.5,2.1-1,3.2-1.5c0.4-0.2,0.8-0.4,1.1-0.6
			c0.7-0.3,1.4-0.7,2.1-1c0.5-0.2,1-0.5,1.4-0.7c0.6-0.3,1.2-0.6,1.8-0.9c0.5-0.3,1-0.5,1.5-0.8c0.5-0.3,1.1-0.6,1.6-0.9
			c0.5-0.3,1-0.6,1.5-0.9c0.5-0.3,1.1-0.6,1.6-0.9c0.5-0.3,1-0.6,1.5-0.9c0.5-0.3,1.1-0.7,1.6-1c0.5-0.3,1-0.6,1.4-0.9
			c0.9-0.6,1.9-1.2,2.8-1.8c0.5-0.3,1-0.7,1.5-1c0.5-0.3,0.9-0.6,1.4-1c0.5-0.4,1-0.7,1.6-1.1c0.4-0.3,0.9-0.6,1.3-1
			c0.5-0.4,1-0.8,1.6-1.2c0.4-0.3,0.8-0.6,1.2-1c0.5-0.4,1-0.8,1.6-1.2c0.4-0.3,0.8-0.6,1.2-0.9c0.5-0.4,1.1-0.9,1.6-1.3
			c0.3-0.3,0.7-0.6,1-0.9c2-1.7,3.9-3.4,5.8-5.2c0.3-0.3,0.6-0.5,0.8-0.8c0.5-0.5,1.1-1,1.6-1.6c0.3-0.3,0.6-0.6,0.9-0.9
			c0.5-0.5,1.1-1.1,1.6-1.6c0.3-0.3,0.6-0.6,0.9-0.9c0.5-0.5,1.1-1.1,1.6-1.6c0.3-0.3,0.5-0.5,0.8-0.8c0.5-0.6,1.1-1.2,1.6-1.8
			c0.1-0.2,0.3-0.3,0.4-0.5c1.9-2.2,3.8-4.4,5.7-6.7c0.1-0.2,0.3-0.3,0.4-0.5c0.5-0.7,1.1-1.4,1.6-2c0.2-0.2,0.4-0.5,0.6-0.7
			c0.5-0.7,1-1.3,1.5-2c0.2-0.2,0.4-0.5,0.5-0.7c0.5-0.7,1-1.4,1.5-2.1c0.1-0.2,0.3-0.4,0.4-0.6c2.4-3.4,4.6-6.9,6.7-10.4
			c0.1-0.1,0.1-0.2,0.2-0.3c0.5-0.8,0.9-1.6,1.4-2.5c0.1-0.2,0.2-0.4,0.3-0.6c0.4-0.8,0.9-1.6,1.3-2.4c0.1-0.2,0.2-0.4,0.3-0.6
			c0.4-0.8,0.9-1.7,1.3-2.5c0.1-0.1,0.1-0.3,0.2-0.4c1.9-3.8,3.7-7.7,5.3-11.7c0-0.1,0-0.1,0.1-0.2c0.4-0.9,0.7-1.8,1.1-2.8
			c0.1-0.2,0.1-0.3,0.2-0.5c0.3-0.9,0.7-1.8,1-2.7c0.1-0.2,0.1-0.4,0.2-0.5c0.3-0.9,0.6-1.9,1-2.8c0-0.1,0.1-0.2,0.1-0.2
			c1.4-4.1,2.6-8.3,3.6-12.6c0-0.1,0-0.1,0-0.2c-55.9,0.4-105.9,10.8-147.1,24c-60.2-3.8-152.2-34.9-164-39c-0.4-0.6-0.6-1-0.6-1
			l-0.9,0.5c-0.3-0.1-0.6,0-0.9,0c0.3,2,0.6,3.9,0.9,5.8c8.4,13.8,35.5,56.3,64.1,78.6c-7.4,4.4-12.9,7.9-16.2,10.1
			c0,0,0.1,0,0.1,0.1c9.7,9.1,20.6,17.1,32.4,23.6c0.1,0.1,0.3,0.1,0.4,0.2c0.9,0.5,1.8,1,2.7,1.4c0.2,0.1,0.4,0.2,0.7,0.3
			c0.8,0.4,1.7,0.9,2.5,1.3c0.3,0.1,0.6,0.3,0.9,0.4c0.8,0.4,1.6,0.8,2.4,1.2c0.3,0.2,0.7,0.3,1,0.5c0.8,0.4,1.6,0.7,2.3,1
			c0.4,0.2,0.8,0.3,1.1,0.5c0.8,0.3,1.5,0.6,2.3,1c0.4,0.2,0.8,0.3,1.3,0.5c0.7,0.3,1.5,0.6,2.2,0.9c0.5,0.2,0.9,0.3,1.4,0.5
			c0.7,0.3,1.4,0.5,2.2,0.8c0.5,0.2,1,0.3,1.4,0.5c0.7,0.2,1.4,0.5,2.1,0.7c0.5,0.2,1,0.3,1.5,0.5c0.7,0.2,1.4,0.4,2.1,0.7
			c0.5,0.2,1.1,0.3,1.6,0.5c0.7,0.2,1.4,0.4,2.1,0.6c0.6,0.2,1.1,0.3,1.7,0.5c0.7,0.2,1.4,0.4,2,0.5c0.6,0.1,1.2,0.3,1.7,0.4
			c0.7,0.2,1.3,0.3,2,0.5c0.6,0.1,1.2,0.3,1.8,0.4c0.7,0.1,1.3,0.3,2,0.4c0.6,0.1,1.2,0.2,1.9,0.4c0.7,0.1,1.3,0.2,2,0.4
			c0.6,0.1,1.3,0.2,1.9,0.3c0.6,0.1,1.3,0.2,1.9,0.3c0.7,0.1,1.3,0.2,2,0.3c0.6,0.1,1.3,0.2,1.9,0.3c0.7,0.1,1.4,0.2,2.1,0.2
			c0.6,0.1,1.2,0.1,1.8,0.2c0.7,0.1,1.5,0.1,2.2,0.2c0.6,0.1,1.2,0.1,1.8,0.2c0.8,0.1,1.6,0.1,2.3,0.1c0.5,0,1.1,0.1,1.6,0.1
			c0.9,0,1.8,0.1,2.6,0.1c0.5,0,0.9,0,1.4,0c1.3,0,2.7,0.1,4,0.1c1.3,0,2.6,0,3.9,0C242.3,403.7,242.7,403.7,243.1,403.7z
			 M148.6,348c-22.7-17.2-45.1-48.6-57.4-67.4c18.6,16.7,54,47,77.5,56.5C161.1,341,154.3,344.7,148.6,348z M173.7,334.6
			c-22-7.2-59.6-39.1-79.2-56.6c24.7,13.4,73.7,38.5,105.8,44.4C190.6,326.5,181.7,330.6,173.7,334.6z M207.6,319.3
			c-28.8-2.7-79.3-27.9-106.9-42.6c30.9,9.9,89.6,27.3,135.6,31.9C226.1,312,216.5,315.7,207.6,319.3z"/>
	</g>
</g>
<path fill="#053D22" d="M238,86.1c42.2,0,81.9,16.4,111.7,46.3c29.8,29.8,46.3,69.5,46.3,111.7c0,42.2-16.4,81.9-46.3,111.7
	c-29.8,29.8-69.5,46.3-111.7,46.3s-81.9-16.4-111.7-46.3C96.4,326,80,286.3,80,244.1c0-42.2,16.4-81.9,46.3-111.7
	C156.1,102.5,195.8,86.1,238,86.1 M238,81.1c-90,0-163,73-163,163c0,90,73,163,163,163s163-73,163-163C401,154.1,328,81.1,238,81.1
	L238,81.1z"/>
</svg>
